<svg width="521" height="511" viewBox="0 0 521 511" fill="none" xmlns="http://www.w3.org/2000/svg">
<mask id="mask0_14_486" style="mask-type:alpha" maskUnits="userSpaceOnUse" x="92" y="175" width="278" height="278">
<circle cx="231" cy="314" r="139" fill="#05030E"/>
</mask>
<g mask="url(#mask0_14_486)">
<g filter="url(#filter0_d_14_486)">
<rect x="46.8037" y="137.479" width="297.613" height="340.252" rx="10" fill="url(#paint0_linear_14_486)"/>
</g>
<path d="M115.025 111.896L241.233 87.1655V291.828L215.65 283.3L115.025 111.896Z" fill="#75CF92"/>
<path d="M229.294 155.331C229.294 145.942 236.906 138.331 246.294 138.331H451.92C461.309 138.331 468.92 145.942 468.92 155.331V446.299C468.92 455.321 461.872 462.772 452.863 463.272L174.696 478.726C161.922 479.436 152.971 466.313 158.294 454.679L227.753 302.872C228.769 300.652 229.294 298.24 229.294 295.799V155.331Z" fill="url(#paint1_linear_14_486)"/>
</g>
<circle cx="231" cy="314" r="96.362" fill="#05030E"/>
<circle cx="231" cy="314" r="67" fill="#14131A"/>
<path d="M128.068 155.55H122.86L121.782 158H120.34L124.778 148.2H126.164L130.616 158H129.146L128.068 155.55ZM127.578 154.43L125.464 149.628L123.35 154.43H127.578ZM131.881 150.58H133.225V158H131.881V150.58ZM132.553 149.152C132.292 149.152 132.073 149.068 131.895 148.9C131.727 148.732 131.643 148.527 131.643 148.284C131.643 148.041 131.727 147.836 131.895 147.668C132.073 147.491 132.292 147.402 132.553 147.402C132.815 147.402 133.029 147.486 133.197 147.654C133.375 147.813 133.463 148.013 133.463 148.256C133.463 148.508 133.375 148.723 133.197 148.9C133.029 149.068 132.815 149.152 132.553 149.152ZM137.08 151.826C137.313 151.397 137.658 151.07 138.116 150.846C138.573 150.622 139.128 150.51 139.782 150.51V151.812C139.707 151.803 139.604 151.798 139.474 151.798C138.746 151.798 138.172 152.017 137.752 152.456C137.341 152.885 137.136 153.501 137.136 154.304V158H135.792V150.58H137.08V151.826ZM148.37 147.612V158H147.082V156.824C146.783 157.235 146.405 157.547 145.948 157.762C145.49 157.977 144.986 158.084 144.436 158.084C143.717 158.084 143.073 157.925 142.504 157.608C141.934 157.291 141.486 156.847 141.16 156.278C140.842 155.699 140.684 155.037 140.684 154.29C140.684 153.543 140.842 152.885 141.16 152.316C141.486 151.747 141.934 151.303 142.504 150.986C143.073 150.669 143.717 150.51 144.436 150.51C144.968 150.51 145.458 150.613 145.906 150.818C146.354 151.014 146.727 151.308 147.026 151.7V147.612H148.37ZM144.548 156.908C145.014 156.908 145.439 156.801 145.822 156.586C146.204 156.362 146.503 156.054 146.718 155.662C146.932 155.261 147.04 154.803 147.04 154.29C147.04 153.777 146.932 153.324 146.718 152.932C146.503 152.531 146.204 152.223 145.822 152.008C145.439 151.793 145.014 151.686 144.548 151.686C144.072 151.686 143.642 151.793 143.26 152.008C142.886 152.223 142.588 152.531 142.364 152.932C142.149 153.324 142.042 153.777 142.042 154.29C142.042 154.803 142.149 155.261 142.364 155.662C142.588 156.054 142.886 156.362 143.26 156.586C143.642 156.801 144.072 156.908 144.548 156.908ZM152.201 151.826C152.434 151.397 152.779 151.07 153.237 150.846C153.694 150.622 154.249 150.51 154.903 150.51V151.812C154.828 151.803 154.725 151.798 154.595 151.798C153.867 151.798 153.293 152.017 152.873 152.456C152.462 152.885 152.257 153.501 152.257 154.304V158H150.913V150.58H152.201V151.826ZM159.669 158.084C158.931 158.084 158.269 157.921 157.681 157.594C157.093 157.267 156.631 156.819 156.295 156.25C155.968 155.671 155.805 155.018 155.805 154.29C155.805 153.562 155.968 152.913 156.295 152.344C156.631 151.765 157.093 151.317 157.681 151C158.269 150.673 158.931 150.51 159.669 150.51C160.406 150.51 161.064 150.673 161.643 151C162.231 151.317 162.688 151.765 163.015 152.344C163.351 152.913 163.519 153.562 163.519 154.29C163.519 155.018 163.351 155.671 163.015 156.25C162.688 156.819 162.231 157.267 161.643 157.594C161.064 157.921 160.406 158.084 159.669 158.084ZM159.669 156.908C160.145 156.908 160.569 156.801 160.943 156.586C161.325 156.362 161.624 156.054 161.839 155.662C162.053 155.261 162.161 154.803 162.161 154.29C162.161 153.777 162.053 153.324 161.839 152.932C161.624 152.531 161.325 152.223 160.943 152.008C160.569 151.793 160.145 151.686 159.669 151.686C159.193 151.686 158.763 151.793 158.381 152.008C158.007 152.223 157.709 152.531 157.485 152.932C157.27 153.324 157.163 153.777 157.163 154.29C157.163 154.803 157.27 155.261 157.485 155.662C157.709 156.054 158.007 156.362 158.381 156.586C158.763 156.801 159.193 156.908 159.669 156.908ZM169.312 150.51C170.03 150.51 170.674 150.669 171.244 150.986C171.813 151.303 172.256 151.747 172.574 152.316C172.9 152.885 173.064 153.543 173.064 154.29C173.064 155.037 172.9 155.699 172.574 156.278C172.256 156.847 171.813 157.291 171.244 157.608C170.674 157.925 170.03 158.084 169.312 158.084C168.78 158.084 168.29 157.981 167.842 157.776C167.403 157.571 167.03 157.272 166.722 156.88V160.716H165.378V150.58H166.666V151.756C166.964 151.345 167.342 151.037 167.8 150.832C168.257 150.617 168.761 150.51 169.312 150.51ZM169.2 156.908C169.676 156.908 170.1 156.801 170.474 156.586C170.856 156.362 171.155 156.054 171.37 155.662C171.594 155.261 171.706 154.803 171.706 154.29C171.706 153.777 171.594 153.324 171.37 152.932C171.155 152.531 170.856 152.223 170.474 152.008C170.1 151.793 169.676 151.686 169.2 151.686C168.733 151.686 168.308 151.798 167.926 152.022C167.552 152.237 167.254 152.54 167.03 152.932C166.815 153.324 166.708 153.777 166.708 154.29C166.708 154.803 166.815 155.261 167.03 155.662C167.244 156.054 167.543 156.362 167.926 156.586C168.308 156.801 168.733 156.908 169.2 156.908Z" fill="white"/>
<path d="M10.6364 388L10.6224 380.86L7.08041 386.81H6.43641L2.89441 380.902V388H1.55041V378.2H2.69841L6.78641 385.088L10.8184 378.2H11.9664L11.9804 388H10.6364ZM17.4529 380.51C18.4795 380.51 19.2635 380.762 19.8049 381.266C20.3555 381.77 20.6309 382.521 20.6309 383.52V388H19.3569V387.02C19.1329 387.365 18.8109 387.631 18.3909 387.818C17.9802 387.995 17.4902 388.084 16.9209 388.084C16.0902 388.084 15.4229 387.883 14.9189 387.482C14.4242 387.081 14.1769 386.553 14.1769 385.9C14.1769 385.247 14.4149 384.724 14.8909 384.332C15.3669 383.931 16.1229 383.73 17.1589 383.73H19.2869V383.464C19.2869 382.885 19.1189 382.442 18.7829 382.134C18.4469 381.826 17.9522 381.672 17.2989 381.672C16.8602 381.672 16.4309 381.747 16.0109 381.896C15.5909 382.036 15.2362 382.227 14.9469 382.47L14.3869 381.462C14.7695 381.154 15.2269 380.921 15.7589 380.762C16.2909 380.594 16.8555 380.51 17.4529 380.51ZM17.1449 387.048C17.6582 387.048 18.1015 386.936 18.4749 386.712C18.8482 386.479 19.1189 386.152 19.2869 385.732V384.696H17.2149C16.0762 384.696 15.5069 385.079 15.5069 385.844C15.5069 386.217 15.6515 386.511 15.9409 386.726C16.2302 386.941 16.6315 387.048 17.1449 387.048ZM26.985 380.51C27.7037 380.51 28.3477 380.669 28.917 380.986C29.4864 381.303 29.9297 381.747 30.247 382.316C30.5737 382.885 30.737 383.543 30.737 384.29C30.737 385.037 30.5737 385.699 30.247 386.278C29.9297 386.847 29.4864 387.291 28.917 387.608C28.3477 387.925 27.7037 388.084 26.985 388.084C26.453 388.084 25.963 387.981 25.515 387.776C25.0764 387.571 24.703 387.272 24.395 386.88V390.716H23.051V380.58H24.339V381.756C24.6377 381.345 25.0157 381.037 25.473 380.832C25.9304 380.617 26.4344 380.51 26.985 380.51ZM26.873 386.908C27.349 386.908 27.7737 386.801 28.147 386.586C28.5297 386.362 28.8284 386.054 29.043 385.662C29.267 385.261 29.379 384.803 29.379 384.29C29.379 383.777 29.267 383.324 29.043 382.932C28.8284 382.531 28.5297 382.223 28.147 382.008C27.7737 381.793 27.349 381.686 26.873 381.686C26.4064 381.686 25.9817 381.798 25.599 382.022C25.2257 382.237 24.927 382.54 24.703 382.932C24.4884 383.324 24.381 383.777 24.381 384.29C24.381 384.803 24.4884 385.261 24.703 385.662C24.9177 386.054 25.2164 386.362 25.599 386.586C25.9817 386.801 26.4064 386.908 26.873 386.908ZM35.5737 384.864H34.0337V388H32.6897V380.58H34.0337V383.716H35.6017L38.0097 380.58H39.4517L36.6377 384.15L39.6477 388H38.0657L35.5737 384.864ZM47.5168 384.332C47.5168 384.435 47.5075 384.57 47.4888 384.738H41.4688C41.5528 385.391 41.8375 385.919 42.3228 386.32C42.8175 386.712 43.4288 386.908 44.1568 386.908C45.0435 386.908 45.7575 386.609 46.2988 386.012L47.0408 386.88C46.7048 387.272 46.2848 387.571 45.7808 387.776C45.2861 387.981 44.7308 388.084 44.1148 388.084C43.3308 388.084 42.6355 387.925 42.0288 387.608C41.4221 387.281 40.9508 386.829 40.6148 386.25C40.2881 385.671 40.1248 385.018 40.1248 384.29C40.1248 383.571 40.2835 382.923 40.6008 382.344C40.9275 381.765 41.3708 381.317 41.9308 381C42.5001 380.673 43.1395 380.51 43.8488 380.51C44.5581 380.51 45.1881 380.673 45.7388 381C46.2988 381.317 46.7328 381.765 47.0408 382.344C47.3581 382.923 47.5168 383.585 47.5168 384.332ZM43.8488 381.644C43.2048 381.644 42.6635 381.84 42.2248 382.232C41.7955 382.624 41.5435 383.137 41.4688 383.772H46.2288C46.1541 383.147 45.8975 382.638 45.4588 382.246C45.0295 381.845 44.4928 381.644 43.8488 381.644ZM54.8174 381.756H52.1014V388H50.7574V381.756H48.0414V380.58H54.8174V381.756ZM56.1916 380.58H57.5356V385.984L62.0856 380.58H63.3036V388H61.9596V382.596L57.4236 388H56.1916V380.58ZM65.9124 380.58H67.2564V383.73H71.4844V380.58H72.8284V388H71.4844V384.892H67.2564V388H65.9124V380.58ZM80.9016 381.756H76.7856V388H75.4416V380.58H80.9016V381.756Z" fill="white"/>
<path d="M380.535 209.418H377.175V218H375.803V209.418H372.457V208.2H380.535V209.418ZM384.425 218.084C383.688 218.084 383.025 217.921 382.437 217.594C381.849 217.267 381.387 216.819 381.051 216.25C380.725 215.671 380.561 215.018 380.561 214.29C380.561 213.562 380.725 212.913 381.051 212.344C381.387 211.765 381.849 211.317 382.437 211C383.025 210.673 383.688 210.51 384.425 210.51C385.163 210.51 385.821 210.673 386.399 211C386.987 211.317 387.445 211.765 387.771 212.344C388.107 212.913 388.275 213.562 388.275 214.29C388.275 215.018 388.107 215.671 387.771 216.25C387.445 216.819 386.987 217.267 386.399 217.594C385.821 217.921 385.163 218.084 384.425 218.084ZM384.425 216.908C384.901 216.908 385.326 216.801 385.699 216.586C386.082 216.362 386.381 216.054 386.595 215.662C386.81 215.261 386.917 214.803 386.917 214.29C386.917 213.777 386.81 213.324 386.595 212.932C386.381 212.531 386.082 212.223 385.699 212.008C385.326 211.793 384.901 211.686 384.425 211.686C383.949 211.686 383.52 211.793 383.137 212.008C382.764 212.223 382.465 212.531 382.241 212.932C382.027 213.324 381.919 213.777 381.919 214.29C381.919 214.803 382.027 215.261 382.241 215.662C382.465 216.054 382.764 216.362 383.137 216.586C383.52 216.801 383.949 216.908 384.425 216.908ZM393.1 214.864H391.56V218H390.216V210.58H391.56V213.716H393.128L395.536 210.58H396.978L394.164 214.15L397.174 218H395.592L393.1 214.864ZM405.043 214.332C405.043 214.435 405.034 214.57 405.015 214.738H398.995C399.079 215.391 399.364 215.919 399.849 216.32C400.344 216.712 400.955 216.908 401.683 216.908C402.57 216.908 403.284 216.609 403.825 216.012L404.567 216.88C404.231 217.272 403.811 217.571 403.307 217.776C402.812 217.981 402.257 218.084 401.641 218.084C400.857 218.084 400.162 217.925 399.555 217.608C398.948 217.281 398.477 216.829 398.141 216.25C397.814 215.671 397.651 215.018 397.651 214.29C397.651 213.571 397.81 212.923 398.127 212.344C398.454 211.765 398.897 211.317 399.457 211C400.026 210.673 400.666 210.51 401.375 210.51C402.084 210.51 402.714 210.673 403.265 211C403.825 211.317 404.259 211.765 404.567 212.344C404.884 212.923 405.043 213.585 405.043 214.332ZM401.375 211.644C400.731 211.644 400.19 211.84 399.751 212.232C399.322 212.624 399.07 213.137 398.995 213.772H403.755C403.68 213.147 403.424 212.638 402.985 212.246C402.556 211.845 402.019 211.644 401.375 211.644ZM407.128 210.58H408.472V213.73H412.7V210.58H414.044V218H412.7V214.892H408.472V218H407.128V210.58ZM419.891 218.084C419.135 218.084 418.459 217.921 417.861 217.594C417.273 217.267 416.811 216.819 416.475 216.25C416.139 215.671 415.971 215.018 415.971 214.29C415.971 213.562 416.139 212.913 416.475 212.344C416.811 211.765 417.273 211.317 417.861 211C418.459 210.673 419.135 210.51 419.891 210.51C420.563 210.51 421.161 210.645 421.683 210.916C422.215 211.187 422.626 211.579 422.915 212.092L421.893 212.75C421.66 212.395 421.371 212.129 421.025 211.952C420.68 211.775 420.297 211.686 419.877 211.686C419.392 211.686 418.953 211.793 418.561 212.008C418.179 212.223 417.875 212.531 417.651 212.932C417.437 213.324 417.329 213.777 417.329 214.29C417.329 214.813 417.437 215.275 417.651 215.676C417.875 216.068 418.179 216.371 418.561 216.586C418.953 216.801 419.392 216.908 419.877 216.908C420.297 216.908 420.68 216.819 421.025 216.642C421.371 216.465 421.66 216.199 421.893 215.844L422.915 216.488C422.626 217.001 422.215 217.398 421.683 217.678C421.161 217.949 420.563 218.084 419.891 218.084ZM431.252 214.332C431.252 214.435 431.243 214.57 431.224 214.738H425.204C425.288 215.391 425.573 215.919 426.058 216.32C426.553 216.712 427.164 216.908 427.892 216.908C428.779 216.908 429.493 216.609 430.034 216.012L430.776 216.88C430.44 217.272 430.02 217.571 429.516 217.776C429.021 217.981 428.466 218.084 427.85 218.084C427.066 218.084 426.371 217.925 425.764 217.608C425.157 217.281 424.686 216.829 424.35 216.25C424.023 215.671 423.86 215.018 423.86 214.29C423.86 213.571 424.019 212.923 424.336 212.344C424.663 211.765 425.106 211.317 425.666 211C426.235 210.673 426.875 210.51 427.584 210.51C428.293 210.51 428.923 210.673 429.474 211C430.034 211.317 430.468 211.765 430.776 212.344C431.093 212.923 431.252 213.585 431.252 214.332ZM427.584 211.644C426.94 211.644 426.399 211.84 425.96 212.232C425.531 212.624 425.279 213.137 425.204 213.772H429.964C429.889 213.147 429.633 212.638 429.194 212.246C428.765 211.845 428.228 211.644 427.584 211.644ZM433.337 210.58H434.681V215.984L439.231 210.58H440.449V218H439.105V212.596L434.569 218H433.337V210.58ZM436.809 209.614C436.118 209.614 435.582 209.451 435.199 209.124C434.816 208.788 434.62 208.307 434.611 207.682H435.521C435.53 208.027 435.647 208.307 435.871 208.522C436.104 208.727 436.412 208.83 436.795 208.83C437.178 208.83 437.486 208.727 437.719 208.522C437.952 208.307 438.074 208.027 438.083 207.682H439.021C439.012 208.307 438.811 208.788 438.419 209.124C438.027 209.451 437.49 209.614 436.809 209.614ZM449.428 210.58V218H448.084V211.756H444.892L444.808 213.408C444.761 214.407 444.673 215.242 444.542 215.914C444.411 216.577 444.197 217.109 443.898 217.51C443.599 217.911 443.184 218.112 442.652 218.112C442.409 218.112 442.134 218.07 441.826 217.986L441.91 216.852C442.031 216.88 442.143 216.894 442.246 216.894C442.619 216.894 442.899 216.731 443.086 216.404C443.273 216.077 443.394 215.69 443.45 215.242C443.506 214.794 443.557 214.155 443.604 213.324L443.73 210.58H449.428Z" fill="white"/>
<g filter="url(#filter1_d_14_486)">
<path d="M238.873 314.374L205 281.254V347.996L238.873 314.374Z" fill="#B4F299"/>
<path d="M252.673 326.418L206.756 280L275.505 315.629L252.673 326.418Z" fill="#8AC172"/>
<path d="M239.876 315.88L206.505 349L251.418 327.171L239.876 315.88Z" fill="#B4F299"/>
</g>
<g filter="url(#filter2_f_14_486)">
<circle cx="265.5" cy="255.5" r="145.5" fill="#A2DC89" fill-opacity="0.4"/>
</g>
<defs>
<filter id="filter0_d_14_486" x="2.80371" y="107.479" width="385.613" height="428.251" filterUnits="userSpaceOnUse" color-interpolation-filters="sRGB">
<feFlood flood-opacity="0" result="BackgroundImageFix"/>
<feColorMatrix in="SourceAlpha" type="matrix" values="0 0 0 0 0 0 0 0 0 0 0 0 0 0 0 0 0 0 127 0" result="hardAlpha"/>
<feOffset dy="14"/>
<feGaussianBlur stdDeviation="22"/>
<feComposite in2="hardAlpha" operator="out"/>
<feColorMatrix type="matrix" values="0 0 0 0 0.862745 0 0 0 0 0.596078 0 0 0 0 0.223529 0 0 0 0.6 0"/>
<feBlend mode="normal" in2="BackgroundImageFix" result="effect1_dropShadow_14_486"/>
<feBlend mode="normal" in="SourceGraphic" in2="effect1_dropShadow_14_486" result="shape"/>
</filter>
<filter id="filter1_d_14_486" x="161" y="247" width="158.505" height="157" filterUnits="userSpaceOnUse" color-interpolation-filters="sRGB">
<feFlood flood-opacity="0" result="BackgroundImageFix"/>
<feColorMatrix in="SourceAlpha" type="matrix" values="0 0 0 0 0 0 0 0 0 0 0 0 0 0 0 0 0 0 127 0" result="hardAlpha"/>
<feOffset dy="11"/>
<feGaussianBlur stdDeviation="22"/>
<feComposite in2="hardAlpha" operator="out"/>
<feColorMatrix type="matrix" values="0 0 0 0 0.637184 0 0 0 0 0.8625 0 0 0 0 0.539062 0 0 0 0.7 0"/>
<feBlend mode="normal" in2="BackgroundImageFix" result="effect1_dropShadow_14_486"/>
<feBlend mode="normal" in="SourceGraphic" in2="effect1_dropShadow_14_486" result="shape"/>
</filter>
<filter id="filter2_f_14_486" x="10" y="0" width="511" height="511" filterUnits="userSpaceOnUse" color-interpolation-filters="sRGB">
<feFlood flood-opacity="0" result="BackgroundImageFix"/>
<feBlend mode="normal" in="SourceGraphic" in2="BackgroundImageFix" result="shape"/>
<feGaussianBlur stdDeviation="55" result="effect1_foregroundBlur_14_486"/>
</filter>
<linearGradient id="paint0_linear_14_486" x1="0.622305" y1="90.5473" x2="362.546" y2="459.014" gradientUnits="userSpaceOnUse">
<stop stop-color="#BBC423"/>
<stop offset="1" stop-color="#E99A3D"/>
</linearGradient>
<linearGradient id="paint1_linear_14_486" x1="153" y1="416" x2="159.965" y2="250.257" gradientUnits="userSpaceOnUse">
<stop stop-color="#E2F685"/>
<stop offset="1" stop-color="#8AF9AD"/>
</linearGradient>
</defs>
</svg>
