<svg width="34" height="34" viewBox="0 0 34 34" fill="none" xmlns="http://www.w3.org/2000/svg">
<path d="M0.463464 17.0441C0.0979771 17.1787 -0.0904109 17.5838 0.042729 17.9507L0.487569 19.1747L3.87464 15.7875L0.463464 17.0441Z" fill="white"/>
<path d="M3.66925 27.924L5.70918 33.5339C5.77293 33.711 5.90607 33.8555 6.07606 33.9334C6.17095 33.9773 6.27295 34 6.37494 34C6.45855 34 6.54069 33.9859 6.62004 33.9561L8.87107 33.126L3.66925 27.924Z" fill="white"/>
<path d="M33.9566 23.1343L31.622 16.7155L26.0193 22.3183L28.7958 21.2954C29.1599 21.1566 29.5707 21.3464 29.7053 21.7148C29.8413 22.0817 29.6529 22.4897 29.286 22.6243L25.7586 23.9248C25.6778 23.9545 25.5957 23.9687 25.5135 23.9687C25.2259 23.9687 24.9539 23.7916 24.8491 23.5054C24.8477 23.5012 24.8491 23.4969 24.8477 23.4927L18.9107 29.4298L33.5358 24.0409C33.9027 23.9064 34.0911 23.5012 33.9566 23.1343Z" fill="white"/>
<path d="M33.7922 11.5404L22.4592 0.207185C22.183 -0.0690617 21.7339 -0.0690617 21.4577 0.207185L0.208407 21.4569C-0.0678336 21.7332 -0.0678336 22.1823 0.208407 22.4585L11.5414 33.7918C11.6788 33.9306 11.8601 34 12.0415 34C12.2228 34 12.4041 33.9306 12.5429 33.7931L33.7922 12.5434C34.0684 12.2658 34.0684 11.818 33.7922 11.5404ZM8.29309 19.6267L5.45983 22.4599C5.32098 22.5973 5.1397 22.6668 4.95835 22.6668C4.777 22.6668 4.59572 22.5974 4.45687 22.4599C4.18062 22.1837 4.18062 21.7346 4.45687 21.4583L7.29012 18.625C7.56636 18.3488 8.01545 18.3488 8.29169 18.625C8.56793 18.9013 8.56933 19.349 8.29309 19.6267ZM20.5256 20.5262C20.0241 21.0277 19.3427 21.2685 18.5848 21.2685C17.3325 21.2685 15.8691 20.6127 14.6452 19.3872C13.7498 18.4919 13.1209 17.4209 12.8758 16.3726C12.6038 15.2039 12.8277 14.1867 13.5062 13.5067C14.1848 12.8267 15.2019 12.6029 16.372 12.8764C17.4203 13.1215 18.4913 13.749 19.3865 14.6457C21.3543 16.612 21.8558 19.196 20.5256 20.5262ZM29.5424 12.5434L26.7091 15.3767C26.5702 15.5141 26.389 15.5836 26.2076 15.5836C26.0263 15.5836 25.845 15.5142 25.7061 15.3767C25.4299 15.1005 25.4299 14.6514 25.7061 14.3751L28.5394 11.5418C28.8156 11.2656 29.2647 11.2656 29.541 11.5418C29.8172 11.818 29.8186 12.2658 29.5424 12.5434Z" fill="white"/>
</svg>
