<svg width="32" height="31" viewBox="0 0 32 31" fill="none" xmlns="http://www.w3.org/2000/svg">
<path d="M15.3971 15.5611L13.0135 30.0848C12.8872 30.8535 13.8504 31.3163 14.3881 30.7453L30.2129 13.9425C30.7326 13.3908 30.2446 12.5044 29.4914 12.6321L16.0504 14.9112C15.7139 14.9683 15.4516 15.2293 15.3971 15.5611Z" fill="url(#paint0_linear_12_109)"/>
<path d="M14.37 10.7522L21.299 2.07072C21.7009 1.56717 21.3559 0.826791 20.7061 0.798466L2.37175 0.000852262C1.61012 -0.0321932 1.23859 0.903897 1.82125 1.38817L13.2268 10.8675C13.572 11.1547 14.0905 11.1024 14.37 10.7522Z" fill="url(#paint1_linear_12_109)"/>
<path d="M31.7617 7.79053L26.2267 2.40668C25.8874 2.07662 25.3319 2.11104 25.037 2.48025L19.2012 9.79215C18.749 10.3586 19.244 11.1759 19.9651 11.0538L31.3359 9.12553C31.9764 9.01715 32.2243 8.24058 31.7617 7.79053Z" fill="url(#paint2_linear_12_109)"/>
<path d="M0.0528803 5.96163L8.51257 28.5561C8.79681 29.3153 9.91978 29.2083 10.051 28.4093L12.2988 14.714C12.3435 14.4411 12.2398 14.1654 12.0253 13.9872L1.31788 5.08809C0.690874 4.56723 -0.23096 5.20375 0.0528803 5.96163Z" fill="url(#paint3_linear_12_109)"/>
<defs>
<linearGradient id="paint0_linear_12_109" x1="7.53927" y1="3.13617e-06" x2="34.426" y2="7.72672" gradientUnits="userSpaceOnUse">
<stop stop-color="#E2F685"/>
<stop offset="1" stop-color="#8AF9AD"/>
</linearGradient>
<linearGradient id="paint1_linear_12_109" x1="7.53927" y1="3.13617e-06" x2="34.426" y2="7.72672" gradientUnits="userSpaceOnUse">
<stop stop-color="#E2F685"/>
<stop offset="1" stop-color="#8AF9AD"/>
</linearGradient>
<linearGradient id="paint2_linear_12_109" x1="7.53927" y1="3.13617e-06" x2="34.426" y2="7.72672" gradientUnits="userSpaceOnUse">
<stop stop-color="#E2F685"/>
<stop offset="1" stop-color="#8AF9AD"/>
</linearGradient>
<linearGradient id="paint3_linear_12_109" x1="7.53927" y1="3.13617e-06" x2="34.426" y2="7.72672" gradientUnits="userSpaceOnUse">
<stop stop-color="#E2F685"/>
<stop offset="1" stop-color="#8AF9AD"/>
</linearGradient>
</defs>
</svg>
