<svg width="74" height="74" viewBox="0 0 74 74" fill="none" xmlns="http://www.w3.org/2000/svg">
<path d="M58.5734 6.93828C58.0203 6.54059 57.2499 6.66698 56.8522 7.2199C56.4546 7.77296 56.5807 8.54352 57.1338 8.94106C66.1499 15.4215 71.5326 25.9099 71.5326 36.9976C71.5326 56.0364 56.0429 71.5256 37.0034 71.5256C17.964 71.5256 2.47425 56.0364 2.47425 36.9976C2.47425 17.9587 17.964 2.46951 37.0034 2.46951C42.1199 2.46951 47.0443 3.56162 51.64 5.71561C52.2569 6.00463 52.9909 5.73904 53.2799 5.12232C53.569 4.50559 53.3034 3.7714 52.6868 3.48239C39.2369 -2.82145 22.3353 -0.686259 10.8152 10.864C-3.6035 25.3205 -3.61614 48.697 10.8437 63.1564C25.3014 77.6137 48.7266 77.6232 63.185 63.1329C79.413 46.8691 76.9765 20.1659 58.5734 6.93828Z" fill="url(#paint0_linear_12_88)"/>
<path d="M45.0148 13.502C28.4824 7.88194 11.401 20.6513 12.2126 38.1623C12.2442 38.8425 12.8181 39.3675 13.5016 39.337C14.1819 39.3054 14.7078 38.7284 14.6764 38.0481C13.9352 22.0594 29.5344 10.8444 44.22 15.8366C53.2728 18.9231 59.355 27.427 59.355 36.9974C59.355 49.3216 49.3281 59.3482 37.0035 59.3482C28.4019 59.3482 20.4663 54.32 16.7868 46.5384C16.4956 45.9229 15.7605 45.6598 15.1448 45.9507C14.5292 46.2418 14.266 46.977 14.5571 47.5926C18.6303 56.2066 27.3039 61.8143 37.0035 61.8143C50.6882 61.8143 61.8214 50.6815 61.8214 36.9973C61.8214 26.3714 55.0678 16.9295 45.0148 13.502Z" fill="url(#paint1_linear_12_88)"/>
<path d="M12.6546 54.1389C12.1146 54.554 12.0135 55.3281 12.4286 55.8681C12.7856 56.3324 13.1608 56.7928 13.5439 57.2364C13.9881 57.7513 14.767 57.8097 15.2831 57.364C15.7987 56.919 15.8558 56.1403 15.4108 55.6248C15.0581 55.2162 14.7126 54.7923 14.3838 54.3649C13.9688 53.8251 13.1944 53.7238 12.6546 54.1389Z" fill="url(#paint2_linear_12_88)"/>
<path d="M60.3722 19.8171C61.3882 19.8171 61.9822 18.6345 61.3395 17.82C60.9771 17.3608 60.5964 16.905 60.2076 16.4657C59.7561 15.9557 58.977 15.908 58.4668 16.3595C57.9567 16.8108 57.9092 17.5902 58.3606 18.1002C58.7188 18.5049 59.0695 18.9246 59.4033 19.3476C59.6465 19.656 60.0077 19.8171 60.3722 19.8171Z" fill="url(#paint3_linear_12_88)"/>
<path d="M24.2051 62.4887C23.5965 62.1824 22.8553 62.4278 22.5492 63.0362C22.2432 63.6446 22.4883 64.3859 23.0967 64.692C23.6194 64.955 24.1568 65.2061 24.6936 65.4387C25.322 65.7106 26.046 65.4186 26.3153 64.7971C26.586 64.1722 26.2987 63.4461 25.6738 63.1754C25.1802 62.9616 24.686 62.7305 24.2051 62.4887Z" fill="url(#paint4_linear_12_88)"/>
<path d="M36.5805 65.5108C35.9015 65.4968 35.339 66.044 35.3287 66.725C35.3184 67.4059 35.8619 67.9665 36.5429 67.9768C37.1496 67.986 37.7414 67.9773 38.3073 67.954C38.9879 67.9259 39.5167 67.3516 39.4887 66.6711C39.4606 65.9905 38.8837 65.4621 38.2057 65.4897C37.6684 65.512 37.1238 65.5194 36.5805 65.5108Z" fill="url(#paint5_linear_12_88)"/>
<path d="M60.0926 53.7389C59.7763 54.1742 59.4429 54.6069 59.1013 55.0249C58.6703 55.5522 58.7484 56.3291 59.2759 56.7601C59.8068 57.1939 60.5829 57.1096 61.0112 56.5855C61.3822 56.1314 61.7445 55.6614 62.0882 55.1883C62.4885 54.6372 62.3663 53.8661 61.8152 53.4659C61.264 53.0658 60.4929 53.1881 60.0926 53.7389Z" fill="url(#paint6_linear_12_88)"/>
<path d="M65.0799 42.0162C64.9856 42.5477 64.8747 43.0827 64.7505 43.6068C64.5934 44.2694 65.0033 44.9339 65.666 45.091C66.3336 45.2493 66.9944 44.8334 67.1503 44.1756C67.2853 43.6062 67.4057 43.0246 67.5082 42.4472C67.6272 41.7766 67.1802 41.1366 66.5095 41.0175C65.8386 40.8983 65.1991 41.3456 65.0799 42.0162Z" fill="url(#paint7_linear_12_88)"/>
<path d="M50.4955 62.1263C50.0193 62.3825 49.5302 62.6279 49.0417 62.8557C48.4245 63.1436 48.1577 63.8774 48.4455 64.4946C48.7339 65.1127 49.4679 65.3783 50.0844 65.0908C50.6151 64.8432 51.1466 64.5766 51.6639 64.2982C52.2637 63.9756 52.4883 63.2276 52.1657 62.628C51.8429 62.0283 51.0951 61.804 50.4955 62.1263Z" fill="url(#paint8_linear_12_88)"/>
<path d="M7.7818 32.6295C8.36217 32.6295 8.87934 32.2179 8.99187 31.6269C9.09283 31.0965 9.21045 30.5627 9.34117 30.0406C9.50657 29.38 9.10517 28.7104 8.44449 28.5448C7.78381 28.3796 7.11419 28.7808 6.94863 29.4415C6.80651 30.009 6.67872 30.5889 6.56897 31.1654C6.42438 31.9249 7.00675 32.6295 7.7818 32.6295Z" fill="url(#paint9_linear_12_88)"/>
<path d="M7.06301 45.0001C7.23812 45.6558 7.91175 46.0495 8.57243 45.8736C9.23049 45.6979 9.62156 45.0221 9.44599 44.3642C9.3071 43.844 9.18147 43.3124 9.07249 42.7838C8.93499 42.1167 8.28294 41.6875 7.61563 41.8252C6.94863 41.9627 6.51933 42.615 6.65698 43.282C6.77552 43.8565 6.9121 44.4345 7.06301 45.0001Z" fill="url(#paint10_linear_12_88)"/>
<path d="M66.8414 28.6197C66.6576 27.964 65.9771 27.5816 65.321 27.7655C64.6653 27.9494 64.2827 28.6301 64.4667 29.2858C64.6122 29.8049 64.7446 30.335 64.8603 30.8614C64.9866 31.4376 65.4969 31.8305 66.0635 31.8305C66.8495 31.8305 67.4387 31.1045 67.2693 30.3329C67.1436 29.7604 66.9997 29.1841 66.8414 28.6197Z" fill="url(#paint11_linear_12_88)"/>
<path d="M49.4814 11.3475C50.0927 11.6453 50.8314 11.3922 51.1301 10.7791C51.4285 10.1668 51.1741 9.42861 50.5618 9.13035C50.0357 8.87401 49.4954 8.62953 48.9557 8.40402C48.3274 8.14121 47.6049 8.43747 47.3422 9.06591C47.0794 9.6942 47.3758 10.4165 48.0041 10.6793C48.5007 10.887 48.9976 11.1117 49.4814 11.3475Z" fill="url(#paint12_linear_12_88)"/>
<path d="M23.2586 11.841C23.7326 11.841 23.7545 11.6831 25.2909 10.9898C25.9116 10.7097 26.1879 9.97937 25.9078 9.35863C25.6277 8.7379 24.8975 8.46152 24.2766 8.74175C23.7423 8.98268 23.2076 9.24272 22.6869 9.51447C22.0831 9.82954 21.8491 10.5745 22.1641 11.1783C22.3844 11.5997 22.8139 11.841 23.2586 11.841Z" fill="url(#paint13_linear_12_88)"/>
<path d="M12.4007 20.2189C12.9478 20.627 13.7201 20.5124 14.1265 19.9678C14.449 19.5356 14.788 19.107 15.1342 18.694C15.5717 18.1721 15.5032 17.3943 14.9813 16.9567C14.459 16.519 13.6814 16.5876 13.2439 17.1096C12.8679 17.5581 12.4997 18.0236 12.1494 18.4932C11.7423 19.039 11.8549 19.8117 12.4007 20.2189Z" fill="url(#paint14_linear_12_88)"/>
<path d="M36.1592 8.4925C36.6968 8.47709 37.2406 8.47663 37.7855 8.49173C38.4684 8.51038 39.0333 7.97366 39.052 7.29281C39.0706 6.61196 38.5339 6.04502 37.853 6.02637C37.2625 6.01018 36.6723 6.01049 36.089 6.02729C35.4081 6.04671 34.872 6.61442 34.8915 7.29512C34.911 7.98306 35.4878 8.51362 36.1592 8.4925Z" fill="url(#paint15_linear_12_88)"/>
<path d="M41.0957 25.1323C41.1257 24.4519 40.5986 23.876 39.9182 23.8459L23.6174 23.1258C22.7596 23.0866 22.1105 23.9326 22.3998 24.7637C22.4407 24.8805 33.6377 55.2463 33.7942 55.6703C34.1129 56.5351 35.2325 56.7538 35.8554 56.0822L55.9431 34.4232C56.396 33.9351 56.3793 33.1753 55.9055 32.7075C46.9982 23.9096 47.5436 24.4099 47.2912 24.2818C46.863 24.0644 46.3286 24.1137 45.9452 24.4337C45.7994 24.555 46.3318 23.8973 37.7965 34.7568L27.1239 25.7496L39.8092 26.3099C40.4922 26.3383 41.0656 25.8126 41.0957 25.1323ZM36.6482 37.0148L35.389 44.8062C35.2803 45.4785 35.7372 46.1116 36.4096 46.2203C37.0835 46.3291 37.7154 45.8704 37.8237 45.1997L39.0538 37.5884L48.2944 35.9972C48.9656 35.8816 49.416 35.2439 49.3004 34.5728C49.1848 33.9016 48.5466 33.4506 47.8759 33.5668L40.9283 34.7631L46.8497 27.2294L53.3221 33.6223L35.4132 52.9323L26.3349 28.3107L36.6482 37.0148Z" fill="url(#paint16_linear_12_88)"/>
<defs>
<linearGradient id="paint0_linear_12_88" x1="17.4346" y1="7.48633e-06" x2="79.9034" y2="17.3913" gradientUnits="userSpaceOnUse">
<stop stop-color="#E2F685"/>
<stop offset="1" stop-color="#8AF9AD"/>
</linearGradient>
<linearGradient id="paint1_linear_12_88" x1="17.4346" y1="7.48633e-06" x2="79.9034" y2="17.3913" gradientUnits="userSpaceOnUse">
<stop stop-color="#E2F685"/>
<stop offset="1" stop-color="#8AF9AD"/>
</linearGradient>
<linearGradient id="paint2_linear_12_88" x1="17.4346" y1="7.48633e-06" x2="79.9034" y2="17.3913" gradientUnits="userSpaceOnUse">
<stop stop-color="#E2F685"/>
<stop offset="1" stop-color="#8AF9AD"/>
</linearGradient>
<linearGradient id="paint3_linear_12_88" x1="17.4346" y1="7.48633e-06" x2="79.9034" y2="17.3913" gradientUnits="userSpaceOnUse">
<stop stop-color="#E2F685"/>
<stop offset="1" stop-color="#8AF9AD"/>
</linearGradient>
<linearGradient id="paint4_linear_12_88" x1="17.4346" y1="7.48633e-06" x2="79.9034" y2="17.3913" gradientUnits="userSpaceOnUse">
<stop stop-color="#E2F685"/>
<stop offset="1" stop-color="#8AF9AD"/>
</linearGradient>
<linearGradient id="paint5_linear_12_88" x1="17.4346" y1="7.48633e-06" x2="79.9034" y2="17.3913" gradientUnits="userSpaceOnUse">
<stop stop-color="#E2F685"/>
<stop offset="1" stop-color="#8AF9AD"/>
</linearGradient>
<linearGradient id="paint6_linear_12_88" x1="17.4346" y1="7.48633e-06" x2="79.9034" y2="17.3913" gradientUnits="userSpaceOnUse">
<stop stop-color="#E2F685"/>
<stop offset="1" stop-color="#8AF9AD"/>
</linearGradient>
<linearGradient id="paint7_linear_12_88" x1="17.4346" y1="7.48633e-06" x2="79.9034" y2="17.3913" gradientUnits="userSpaceOnUse">
<stop stop-color="#E2F685"/>
<stop offset="1" stop-color="#8AF9AD"/>
</linearGradient>
<linearGradient id="paint8_linear_12_88" x1="17.4346" y1="7.48633e-06" x2="79.9034" y2="17.3913" gradientUnits="userSpaceOnUse">
<stop stop-color="#E2F685"/>
<stop offset="1" stop-color="#8AF9AD"/>
</linearGradient>
<linearGradient id="paint9_linear_12_88" x1="17.4346" y1="7.48633e-06" x2="79.9034" y2="17.3913" gradientUnits="userSpaceOnUse">
<stop stop-color="#E2F685"/>
<stop offset="1" stop-color="#8AF9AD"/>
</linearGradient>
<linearGradient id="paint10_linear_12_88" x1="17.4346" y1="7.48633e-06" x2="79.9034" y2="17.3913" gradientUnits="userSpaceOnUse">
<stop stop-color="#E2F685"/>
<stop offset="1" stop-color="#8AF9AD"/>
</linearGradient>
<linearGradient id="paint11_linear_12_88" x1="17.4346" y1="7.48633e-06" x2="79.9034" y2="17.3913" gradientUnits="userSpaceOnUse">
<stop stop-color="#E2F685"/>
<stop offset="1" stop-color="#8AF9AD"/>
</linearGradient>
<linearGradient id="paint12_linear_12_88" x1="17.4346" y1="7.48633e-06" x2="79.9034" y2="17.3913" gradientUnits="userSpaceOnUse">
<stop stop-color="#E2F685"/>
<stop offset="1" stop-color="#8AF9AD"/>
</linearGradient>
<linearGradient id="paint13_linear_12_88" x1="17.4346" y1="7.48633e-06" x2="79.9034" y2="17.3913" gradientUnits="userSpaceOnUse">
<stop stop-color="#E2F685"/>
<stop offset="1" stop-color="#8AF9AD"/>
</linearGradient>
<linearGradient id="paint14_linear_12_88" x1="17.4346" y1="7.48633e-06" x2="79.9034" y2="17.3913" gradientUnits="userSpaceOnUse">
<stop stop-color="#E2F685"/>
<stop offset="1" stop-color="#8AF9AD"/>
</linearGradient>
<linearGradient id="paint15_linear_12_88" x1="17.4346" y1="7.48633e-06" x2="79.9034" y2="17.3913" gradientUnits="userSpaceOnUse">
<stop stop-color="#E2F685"/>
<stop offset="1" stop-color="#8AF9AD"/>
</linearGradient>
<linearGradient id="paint16_linear_12_88" x1="17.4346" y1="7.48633e-06" x2="79.9034" y2="17.3913" gradientUnits="userSpaceOnUse">
<stop stop-color="#E2F685"/>
<stop offset="1" stop-color="#8AF9AD"/>
</linearGradient>
</defs>
</svg>
